<svg viewBox="0 0 302 300" xmlns="http://www.w3.org/2000/svg">
  <path d="M 773.5 246.38 Q 775 245.619 776.5 246.38 L 798.5 257.548 Q 800 258.31 800 259.832 L 800 282.168 Q 800 283.691 798.5 284.452 L 776.5 295.62 Q 775 296.381 773.5 295.62 L 751.5 284.452 Q 750 283.691 750 282.168 L 750 259.832 Q 750 258.31 751.5 257.548 Z" style="fill: rgba(216, 216, 216, 0); stroke: rgb(0, 0, 0); stroke-width: 3px;" transform="matrix(1, -0.000074, 0.000074, 1, -683.35156, -242.65393)"/>
  <path d="M 773.5 246.38 Q 775 245.619 776.5 246.38 L 798.5 257.548 Q 800 258.31 800 259.832 L 800 282.168 Q 800 283.691 798.5 284.452 L 776.5 295.62 Q 775 296.381 773.5 295.62 L 751.5 284.452 Q 750 283.691 750 282.168 L 750 259.832 Q 750 258.31 751.5 257.548 Z" style="fill: rgba(216, 216, 216, 0); stroke: rgb(0, 0, 0); stroke-width: 3px;" transform="matrix(1, -0.000074, 0.000074, 1, -621.35156, -242.65393)"/>
  <path d="M 773.5 246.38 Q 775 245.619 776.5 246.38 L 798.5 257.548 Q 800 258.31 800 259.832 L 800 282.168 Q 800 283.691 798.5 284.452 L 776.5 295.62 Q 775 296.381 773.5 295.62 L 751.5 284.452 Q 750 283.691 750 282.168 L 750 259.832 Q 750 258.31 751.5 257.548 Z" style="fill: rgba(216, 216, 216, 0); stroke: rgb(0, 0, 0); stroke-width: 3px;" transform="matrix(1, -0.000074, 0.000074, 1, -559.35156, -242.65393)"/>
  <path d="M 773.5 246.38 Q 775 245.619 776.5 246.38 L 798.5 257.548 Q 800 258.31 800 259.832 L 800 282.168 Q 800 283.691 798.5 284.452 L 776.5 295.62 Q 775 296.381 773.5 295.62 L 751.5 284.452 Q 750 283.691 750 282.168 L 750 259.832 Q 750 258.31 751.5 257.548 Z" style="fill: rgba(216, 216, 216, 0); stroke: rgb(0, 0, 0); stroke-width: 3px;" transform="matrix(1, -0.000074, 0.000074, 1, -715.35156, -192.65393)"/>
  <path d="M 773.5 246.38 Q 775 245.619 776.5 246.38 L 798.5 257.548 Q 800 258.31 800 259.832 L 800 282.168 Q 800 283.691 798.5 284.452 L 776.5 295.62 Q 775 296.381 773.5 295.62 L 751.5 284.452 Q 750 283.691 750 282.168 L 750 259.832 Q 750 258.31 751.5 257.548 Z" style="fill: rgba(216, 216, 216, 0); stroke: rgb(0, 0, 0); stroke-width: 3px;" transform="matrix(1, -0.000074, 0.000074, 1, -653.35156, -192.65393)"/>
  <path d="M 773.5 246.38 Q 775 245.619 776.5 246.38 L 798.5 257.548 Q 800 258.31 800 259.832 L 800 282.168 Q 800 283.691 798.5 284.452 L 776.5 295.62 Q 775 296.381 773.5 295.62 L 751.5 284.452 Q 750 283.691 750 282.168 L 750 259.832 Q 750 258.31 751.5 257.548 Z" style="fill: rgba(216, 216, 216, 0); stroke: rgb(0, 0, 0); stroke-width: 3px;" transform="matrix(1, -0.000074, 0.000074, 1, -591.35156, -192.65393)"/>
  <path d="M 773.5 246.38 Q 775 245.619 776.5 246.38 L 798.5 257.548 Q 800 258.31 800 259.832 L 800 282.168 Q 800 283.691 798.5 284.452 L 776.5 295.62 Q 775 296.381 773.5 295.62 L 751.5 284.452 Q 750 283.691 750 282.168 L 750 259.832 Q 750 258.31 751.5 257.548 Z" style="fill: rgba(216, 216, 216, 0); stroke: rgb(0, 0, 0); stroke-width: 3px;" transform="matrix(1, -0.000074, 0.000074, 1, -529.35156, -192.65393)"/>
  <path d="M 773.5 246.38 Q 775 245.619 776.5 246.38 L 798.5 257.548 Q 800 258.31 800 259.832 L 800 282.168 Q 800 283.691 798.5 284.452 L 776.5 295.62 Q 775 296.381 773.5 295.62 L 751.5 284.452 Q 750 283.691 750 282.168 L 750 259.832 Q 750 258.31 751.5 257.548 Z" style="fill: rgba(216, 216, 216, 0); stroke: rgb(0, 0, 0); stroke-width: 3px;" transform="matrix(1, -0.000074, 0.000074, 1, -747.35156, -142.65393)"/>
  <path d="M 773.5 246.38 Q 775 245.619 776.5 246.38 L 798.5 257.548 Q 800 258.31 800 259.832 L 800 282.168 Q 800 283.691 798.5 284.452 L 776.5 295.62 Q 775 296.381 773.5 295.62 L 751.5 284.452 Q 750 283.691 750 282.168 L 750 259.832 Q 750 258.31 751.5 257.548 Z" style="fill: rgba(216, 216, 216, 0); stroke: rgb(0, 0, 0); stroke-width: 3px;" transform="matrix(1, -0.000074, 0.000074, 1, -685.35156, -142.65393)"/>
  <path d="M 773.5 246.38 Q 775 245.619 776.5 246.38 L 798.5 257.548 Q 800 258.31 800 259.832 L 800 282.168 Q 800 283.691 798.5 284.452 L 776.5 295.62 Q 775 296.381 773.5 295.62 L 751.5 284.452 Q 750 283.691 750 282.168 L 750 259.832 Q 750 258.31 751.5 257.548 Z" style="fill: rgba(216, 216, 216, 0); stroke: rgb(0, 0, 0); stroke-width: 3px;" transform="matrix(1, -0.000074, 0.000074, 1, -623.35156, -142.65393)"/>
  <path d="M 773.5 246.38 Q 775 245.619 776.5 246.38 L 798.5 257.548 Q 800 258.31 800 259.832 L 800 282.168 Q 800 283.691 798.5 284.452 L 776.5 295.62 Q 775 296.381 773.5 295.62 L 751.5 284.452 Q 750 283.691 750 282.168 L 750 259.832 Q 750 258.31 751.5 257.548 Z" style="fill: rgba(216, 216, 216, 0); stroke: rgb(0, 0, 0); stroke-width: 3px;" transform="matrix(1, -0.000074, 0.000074, 1, -561.351621, -142.65393)"/>
  <path d="M 773.5 246.38 Q 775 245.619 776.5 246.38 L 798.5 257.548 Q 800 258.31 800 259.832 L 800 282.168 Q 800 283.691 798.5 284.452 L 776.5 295.62 Q 775 296.381 773.5 295.62 L 751.5 284.452 Q 750 283.691 750 282.168 L 750 259.832 Q 750 258.31 751.5 257.548 Z" style="fill: rgba(216, 216, 216, 0); stroke: rgb(0, 0, 0); stroke-width: 3px;" transform="matrix(1, -0.000074, 0.000074, 1, -499.35156, -142.656265)"/>
  <path d="M 773.5 246.38 Q 775 245.619 776.5 246.38 L 798.5 257.548 Q 800 258.31 800 259.832 L 800 282.168 Q 800 283.691 798.5 284.452 L 776.5 295.62 Q 775 296.381 773.5 295.62 L 751.5 284.452 Q 750 283.691 750 282.168 L 750 259.832 Q 750 258.31 751.5 257.548 Z" style="fill: rgba(216, 216, 216, 0); stroke: rgb(0, 0, 0); stroke-width: 3px;" transform="matrix(1, -0.000074, 0.000074, 1, -715.35156, -92.653945)"/>
  <path d="M 773.5 246.38 Q 775 245.619 776.5 246.38 L 798.5 257.548 Q 800 258.31 800 259.832 L 800 282.168 Q 800 283.691 798.5 284.452 L 776.5 295.62 Q 775 296.381 773.5 295.62 L 751.5 284.452 Q 750 283.691 750 282.168 L 750 259.832 Q 750 258.31 751.5 257.548 Z" style="fill: rgba(216, 216, 216, 0); stroke: rgb(0, 0, 0); stroke-width: 3px;" transform="matrix(1, -0.000074, 0.000074, 1, -653.35156, -92.653945)"/>
  <path d="M 773.5 246.38 Q 775 245.619 776.5 246.38 L 798.5 257.548 Q 800 258.31 800 259.832 L 800 282.168 Q 800 283.691 798.5 284.452 L 776.5 295.62 Q 775 296.381 773.5 295.62 L 751.5 284.452 Q 750 283.691 750 282.168 L 750 259.832 Q 750 258.31 751.5 257.548 Z" style="fill: rgba(216, 216, 216, 0); stroke: rgb(0, 0, 0); stroke-width: 3px;" transform="matrix(1, -0.000074, 0.000074, 1, -591.35156, -92.653945)"/>
  <path d="M 773.5 246.38 Q 775 245.619 776.5 246.38 L 798.5 257.548 Q 800 258.31 800 259.832 L 800 282.168 Q 800 283.691 798.5 284.452 L 776.5 295.62 Q 775 296.381 773.5 295.62 L 751.5 284.452 Q 750 283.691 750 282.168 L 750 259.832 Q 750 258.31 751.5 257.548 Z" style="fill: rgba(216, 216, 216, 0); stroke: rgb(0, 0, 0); stroke-width: 3px;" transform="matrix(1, -0.000074, 0.000074, 1, -529.351621, -92.653945)"/>
  <path d="M 773.5 246.38 Q 775 245.619 776.5 246.38 L 798.5 257.548 Q 800 258.31 800 259.832 L 800 282.168 Q 800 283.691 798.5 284.452 L 776.5 295.62 Q 775 296.381 773.5 295.62 L 751.5 284.452 Q 750 283.691 750 282.168 L 750 259.832 Q 750 258.31 751.5 257.548 Z" style="fill: rgba(216, 216, 216, 0); stroke: rgb(0, 0, 0); stroke-width: 3px;" transform="matrix(1, -0.000074, 0.000074, 1, -683.35156, -42.653941)"/>
  <path d="M 773.5 246.38 Q 775 245.619 776.5 246.38 L 798.5 257.548 Q 800 258.31 800 259.832 L 800 282.168 Q 800 283.691 798.5 284.452 L 776.5 295.62 Q 775 296.381 773.5 295.62 L 751.5 284.452 Q 750 283.691 750 282.168 L 750 259.832 Q 750 258.31 751.5 257.548 Z" style="fill: rgba(216, 216, 216, 0); stroke: rgb(0, 0, 0); stroke-width: 3px;" transform="matrix(1, -0.000074, 0.000074, 1, -621.35156, -42.653941)"/>
  <path d="M 773.5 246.38 Q 775 245.619 776.5 246.38 L 798.5 257.548 Q 800 258.31 800 259.832 L 800 282.168 Q 800 283.691 798.5 284.452 L 776.5 295.62 Q 775 296.381 773.5 295.62 L 751.5 284.452 Q 750 283.691 750 282.168 L 750 259.832 Q 750 258.31 751.5 257.548 Z" style="fill: rgba(216, 216, 216, 0); stroke: rgb(0, 0, 0); stroke-width: 3px;" transform="matrix(1, -0.000074, 0.000074, 1, -559.35156, -42.653941)"/>
</svg>